<?xml version="1.0" standalone="no"?>
<!DOCTYPE svg PUBLIC "-//W3C//DTD SVG 20010904//EN"
 "http://www.w3.org/TR/2001/REC-SVG-20010904/DTD/svg10.dtd">
<svg version="1.0" xmlns="http://www.w3.org/2000/svg"
 width="2400.000000pt" height="2400.000000pt" viewBox="0 0 2400.000000 2400.000000"
 preserveAspectRatio="xMidYMid meet">
<metadata>
Created by potrace 1.14, written by Peter Selinger 2001-2017
</metadata>
<g transform="translate(0.000000,2400.000000) scale(0.100000,-0.100000)"
fill="#000000" stroke="none">
<path d="M11528 23995 c-2 -2 -67 -6 -145 -10 -78 -3 -161 -8 -185 -10 -24 -2
-83 -6 -133 -10 -49 -3 -108 -8 -130 -10 -22 -2 -67 -7 -100 -10 -70 -7 -132
-13 -195 -21 -25 -3 -63 -7 -85 -9 -46 -5 -132 -16 -156 -20 -9 -2 -40 -6 -70
-10 -30 -3 -65 -8 -79 -10 -14 -2 -56 -9 -95 -15 -118 -18 -126 -20 -245 -41
-63 -11 -144 -26 -180 -34 -36 -7 -81 -16 -100 -19 -46 -7 -154 -30 -265 -57
-49 -11 -101 -23 -115 -26 -14 -2 -95 -22 -182 -44 -86 -22 -164 -42 -175 -44
-23 -5 -330 -95 -443 -130 -47 -14 -92 -27 -100 -30 -108 -29 -729 -255 -827
-300 -17 -8 -33 -15 -36 -15 -7 0 -332 -138 -417 -178 -412 -190 -697 -336
-1090 -562 -476 -274 -1137 -730 -1534 -1060 -12 -10 -79 -66 -151 -126 -264
-219 -476 -415 -785 -724 -243 -243 -314 -317 -440 -460 -36 -40 -72 -81 -81
-90 -45 -47 -274 -323 -432 -520 -57 -71 -223 -293 -310 -415 -59 -82 -112
-156 -117 -162 -6 -7 -75 -111 -154 -230 -208 -317 -367 -580 -514 -853 -13
-25 -39 -73 -58 -107 -56 -103 -247 -489 -309 -623 -31 -69 -66 -145 -77 -170
-40 -88 -136 -317 -187 -450 -29 -74 -57 -144 -61 -155 -5 -11 -20 -54 -35
-95 -14 -41 -31 -86 -37 -100 -32 -75 -247 -751 -263 -825 -1 -5 -7 -30 -14
-55 -7 -25 -15 -52 -17 -60 -2 -8 -26 -105 -54 -215 -28 -110 -52 -209 -54
-220 -2 -11 -14 -65 -26 -120 -32 -152 -85 -427 -96 -495 -2 -19 -7 -46 -10
-60 -2 -14 -6 -36 -9 -50 -3 -13 -7 -42 -10 -65 -3 -22 -8 -51 -10 -65 -3 -14
-7 -43 -10 -65 -2 -22 -6 -49 -9 -60 -2 -11 -7 -45 -10 -75 -4 -30 -8 -66 -11
-80 -2 -14 -7 -52 -10 -85 -3 -33 -8 -73 -10 -90 -5 -35 -13 -114 -20 -200 -3
-33 -7 -76 -10 -95 -2 -19 -7 -80 -11 -135 -3 -55 -8 -111 -9 -125 -26 -224
-27 -1327 -1 -1590 2 -19 7 -84 11 -145 4 -60 8 -117 10 -125 1 -8 6 -53 9
-100 4 -47 9 -92 11 -100 2 -8 6 -46 10 -85 3 -38 7 -79 9 -90 2 -11 7 -47 10
-80 8 -78 14 -118 40 -285 8 -52 17 -112 20 -132 10 -66 18 -110 22 -132 2
-11 7 -37 10 -56 4 -31 12 -73 20 -105 1 -5 5 -27 9 -48 3 -21 20 -102 36
-180 17 -78 32 -153 35 -167 3 -14 28 -117 55 -230 28 -113 52 -212 54 -220
23 -96 131 -459 196 -656 226 -691 576 -1497 887 -2042 23 -41 42 -75 42 -77
0 -8 211 -363 302 -509 165 -264 501 -751 612 -887 12 -14 32 -41 46 -59 68
-92 338 -426 409 -505 10 -11 55 -63 101 -115 160 -183 277 -307 530 -560 406
-407 679 -647 1170 -1033 48 -38 293 -219 335 -248 28 -19 52 -37 55 -40 11
-13 445 -302 580 -386 136 -85 488 -293 495 -293 2 0 32 -16 67 -36 154 -88
539 -284 714 -364 267 -123 484 -216 679 -291 72 -28 141 -55 155 -61 120 -50
572 -202 855 -287 179 -53 596 -161 755 -195 179 -38 507 -102 570 -112 47 -7
80 -13 110 -19 14 -3 72 -12 130 -20 58 -9 123 -18 145 -21 22 -3 54 -8 70 -9
31 -4 112 -14 155 -20 43 -6 112 -14 175 -20 33 -3 78 -8 100 -10 86 -10 134
-14 235 -20 58 -4 121 -9 140 -11 268 -26 1353 -26 1590 1 19 2 78 6 130 10
52 3 113 8 135 10 102 11 162 17 209 21 28 2 71 7 96 10 25 4 56 8 70 9 55 5
148 17 200 25 30 6 72 12 94 15 52 6 115 15 151 21 17 3 46 7 65 10 19 2 42 6
50 9 8 2 33 7 55 10 23 3 52 8 65 10 14 3 41 8 60 11 19 3 41 7 49 10 8 2 30
7 50 10 20 3 88 17 151 30 63 14 135 29 160 34 25 5 56 12 69 14 13 3 116 28
230 57 113 28 213 52 221 54 72 17 430 125 620 187 224 73 661 233 735 268 11
5 54 23 95 39 41 16 122 50 180 76 58 26 118 51 134 57 17 6 70 31 118 55 49
23 91 43 94 43 8 0 446 219 549 275 80 43 235 129 350 194 364 207 897 561
1255 835 118 90 342 266 350 275 3 3 26 23 52 44 26 21 53 43 60 50 7 7 33 28
58 48 25 20 54 45 66 55 12 11 52 46 89 79 202 177 310 279 560 530 250 250
333 336 455 475 36 40 72 81 80 89 26 28 233 273 275 326 22 28 43 52 46 55 6
5 160 201 254 325 320 418 703 1012 953 1475 13 25 39 72 57 105 77 140 345
686 345 701 0 3 18 43 40 90 22 47 40 88 40 90 0 2 9 24 20 49 43 98 59 136
119 290 35 88 67 169 71 180 5 11 20 54 35 95 15 41 37 102 50 135 13 33 49
139 80 235 81 251 89 274 91 285 1 6 16 55 32 110 17 55 38 127 47 160 8 33
18 67 20 75 15 53 124 491 129 515 8 47 16 85 31 151 8 34 16 73 19 85 2 13 9
51 15 84 12 64 18 96 26 135 9 49 16 85 20 114 2 15 6 35 9 45 3 9 8 40 11 70
6 52 8 63 20 121 2 14 7 44 10 68 8 68 16 125 20 152 6 41 24 181 30 240 3 30
10 93 15 140 10 89 16 157 26 300 3 47 7 99 9 115 27 235 26 1395 0 1610 -2
17 -7 75 -10 130 -4 55 -8 114 -10 130 -2 17 -7 62 -10 100 -4 39 -8 84 -10
100 -2 17 -7 57 -10 90 -3 33 -8 71 -10 85 -2 14 -6 50 -10 81 -3 31 -7 65 -9
75 -3 18 -10 68 -22 154 -3 19 -9 60 -14 90 -5 30 -11 71 -14 90 -8 55 -17
111 -22 134 -2 11 -7 37 -10 56 -4 30 -11 64 -20 105 -1 6 -5 26 -8 45 -28
158 -95 455 -156 697 -180 706 -430 1408 -745 2088 -42 92 -262 533 -292 585
-11 19 -35 62 -53 95 -184 338 -379 658 -588 965 -110 162 -274 396 -299 425
-5 6 -20 26 -33 45 -14 19 -29 40 -35 46 -5 7 -28 36 -50 65 -63 83 -283 357
-348 434 -73 85 -146 170 -170 199 -20 23 -139 154 -232 256 -79 86 -541 548
-630 629 -140 128 -161 147 -240 216 -44 39 -82 72 -85 75 -3 3 -61 52 -130
109 -69 57 -136 113 -150 125 -30 25 -230 182 -343 268 -76 58 -161 119 -217
158 -36 25 -67 48 -70 51 -3 4 -122 85 -265 181 -234 157 -642 408 -785 484
-30 16 -57 31 -60 34 -3 3 -21 13 -40 22 -19 10 -89 47 -155 82 -636 346
-1455 682 -2200 902 -179 53 -553 154 -624 169 -9 2 -77 17 -151 34 -181 40
-415 88 -470 96 -25 3 -52 8 -60 10 -15 4 -42 9 -114 20 -21 4 -48 8 -60 11
-11 2 -68 11 -126 19 -58 8 -121 18 -140 21 -19 3 -55 7 -80 10 -25 2 -56 6
-69 9 -13 2 -49 7 -80 10 -31 3 -69 8 -86 10 -16 2 -59 7 -95 10 -36 3 -78 7
-95 10 -16 2 -68 6 -115 10 -47 4 -96 8 -110 10 -14 2 -81 7 -150 11 -69 3
-141 8 -160 11 -42 5 -1097 13 -1102 8z m797 -899 c121 -4 249 -8 285 -10 179
-11 269 -17 305 -21 22 -3 72 -7 110 -10 39 -3 86 -7 105 -10 19 -2 60 -7 90
-10 68 -7 286 -35 320 -40 35 -5 101 -15 142 -20 51 -7 208 -33 323 -55 55
-10 114 -21 130 -24 17 -3 41 -8 55 -11 14 -3 36 -7 50 -10 14 -2 77 -16 140
-30 63 -15 122 -28 132 -30 147 -32 472 -119 742 -199 195 -58 687 -231 841
-296 11 -4 36 -15 55 -23 19 -8 76 -31 125 -52 50 -20 108 -44 130 -54 22 -10
103 -47 180 -81 252 -113 706 -346 913 -469 29 -17 55 -31 58 -31 3 0 17 -8
32 -19 15 -10 79 -49 142 -87 260 -154 681 -438 892 -599 14 -11 36 -27 48
-35 12 -8 34 -25 48 -36 15 -12 83 -66 152 -120 166 -130 376 -307 546 -459
164 -147 524 -500 689 -675 80 -85 287 -318 355 -399 25 -29 50 -59 55 -65 14
-15 242 -299 285 -356 19 -25 39 -50 45 -56 5 -6 17 -22 25 -34 8 -13 24 -35
36 -49 135 -172 456 -650 614 -916 29 -49 61 -102 72 -117 10 -15 18 -29 18
-32 0 -3 22 -43 48 -88 81 -137 186 -335 290 -545 84 -169 128 -264 243 -518
31 -69 99 -234 99 -240 0 -3 9 -24 19 -48 27 -58 119 -303 180 -477 70 -200
219 -683 236 -765 1 -5 7 -30 14 -55 7 -25 15 -52 16 -60 2 -8 16 -64 30 -125
15 -60 28 -117 30 -125 2 -8 8 -33 14 -55 5 -22 17 -76 26 -120 8 -44 20 -98
25 -120 10 -42 45 -225 55 -285 3 -19 8 -48 11 -63 3 -16 7 -38 9 -50 11 -85
27 -192 30 -197 2 -3 6 -32 9 -65 4 -33 8 -71 11 -85 7 -38 13 -88 20 -165 4
-38 9 -78 11 -87 1 -9 5 -48 9 -85 3 -37 8 -86 10 -108 4 -38 10 -115 20 -250
5 -66 12 -185 20 -375 7 -135 7 -632 1 -795 -9 -221 -28 -513 -41 -630 -2 -16
-6 -59 -10 -95 -3 -36 -7 -78 -9 -95 -3 -16 -7 -57 -10 -90 -4 -33 -8 -71 -11
-85 -2 -14 -7 -47 -10 -75 -3 -27 -8 -63 -10 -80 -7 -50 -36 -246 -41 -269 -2
-11 -6 -34 -9 -51 -7 -44 -54 -296 -60 -325 -2 -14 -7 -36 -10 -50 -3 -14 -7
-34 -9 -45 -2 -11 -23 -101 -46 -200 -23 -99 -46 -196 -50 -215 -4 -19 -27
-105 -50 -190 -23 -85 -43 -159 -44 -165 -1 -5 -4 -14 -7 -20 -4 -5 -9 -23
-13 -40 -8 -32 -52 -179 -96 -315 -105 -325 -282 -784 -410 -1065 -22 -49 -51
-112 -63 -139 -37 -83 -263 -536 -312 -626 -46 -84 -110 -199 -130 -232 -5 -9
-18 -30 -27 -48 -101 -187 -441 -712 -612 -945 -141 -193 -369 -487 -452 -585
-12 -14 -65 -77 -119 -140 -290 -341 -752 -812 -1065 -1085 -30 -27 -57 -51
-60 -54 -3 -4 -32 -29 -65 -56 -33 -28 -66 -56 -73 -62 -31 -29 -286 -236
-387 -315 -324 -250 -750 -542 -1075 -735 -58 -34 -110 -67 -117 -73 -7 -5
-15 -10 -18 -10 -3 0 -54 -28 -113 -62 -452 -262 -1024 -528 -1627 -757 -349
-133 -1009 -330 -1320 -396 -11 -2 -81 -17 -155 -34 -74 -16 -207 -43 -295
-60 -138 -26 -201 -37 -390 -67 -16 -2 -41 -6 -55 -9 -14 -2 -50 -7 -80 -10
-30 -3 -62 -8 -70 -10 -8 -2 -40 -7 -70 -10 -30 -3 -71 -8 -90 -10 -19 -2 -60
-7 -90 -10 -30 -4 -66 -8 -80 -10 -14 -2 -61 -6 -105 -10 -44 -3 -102 -8 -130
-10 -46 -4 -142 -11 -275 -20 -324 -21 -889 -21 -1240 -1 -140 9 -257 17 -305
21 -27 3 -77 7 -110 10 -33 3 -78 7 -100 10 -22 2 -67 7 -100 10 -33 4 -71 8
-85 10 -14 2 -50 7 -80 10 -30 3 -66 8 -80 10 -14 2 -45 7 -70 10 -25 3 -70
10 -100 15 -30 5 -71 11 -90 14 -49 7 -109 17 -133 22 -12 2 -39 6 -62 9 -22
3 -47 8 -55 10 -8 2 -31 7 -50 10 -215 35 -723 155 -1047 249 -396 114 -938
306 -1223 433 -30 13 -68 30 -85 38 -285 124 -527 237 -470 219 11 -3 106 -33
210 -66 190 -59 351 -107 455 -134 30 -8 62 -16 70 -18 145 -38 497 -120 570
-132 14 -2 45 -9 70 -14 25 -5 56 -12 70 -14 14 -2 52 -9 85 -15 33 -6 76 -13
95 -16 19 -3 58 -10 85 -15 28 -5 86 -14 130 -20 44 -6 91 -13 105 -16 14 -2
49 -6 78 -10 29 -3 62 -7 72 -9 10 -2 50 -6 87 -10 37 -3 77 -8 88 -10 11 -2
57 -7 103 -10 46 -4 91 -8 101 -10 9 -2 64 -6 121 -10 58 -4 128 -8 155 -10
315 -23 953 -23 1285 0 130 9 216 15 260 19 25 3 79 7 120 11 41 3 89 8 105
10 17 2 50 6 75 9 25 3 65 8 90 11 25 3 61 7 80 10 19 2 52 6 73 9 20 3 54 8
75 11 20 3 62 10 92 15 30 5 74 12 98 15 24 3 80 13 125 21 45 8 96 18 112 21
28 4 245 49 290 59 11 2 29 6 40 9 33 7 56 12 130 30 39 9 79 19 90 21 11 3
31 7 43 10 13 3 49 12 80 20 32 8 65 17 75 19 64 14 438 126 604 181 326 108
752 274 988 384 48 22 89 40 91 40 8 0 469 229 569 283 174 93 324 179 567
326 290 175 749 499 1043 735 55 45 108 88 119 96 40 32 254 215 301 257 28
25 88 79 135 121 95 86 508 497 615 612 74 79 249 279 325 369 25 30 50 59 55
65 15 16 189 235 267 336 184 239 483 677 628 920 75 125 190 322 190 325 0 1
30 55 66 121 68 124 256 498 311 619 18 39 46 102 64 140 45 100 169 402 213
520 21 55 42 112 48 127 5 15 10 31 10 35 0 4 3 13 8 18 24 31 243 740 286
927 2 10 6 27 9 38 3 11 7 29 10 40 3 11 7 28 9 37 2 10 11 45 20 78 31 121
103 472 130 635 3 19 8 49 11 65 8 48 14 87 20 130 3 22 10 65 15 95 5 30 12
79 15 107 2 29 7 65 9 80 5 33 14 100 21 168 3 28 8 70 10 95 3 25 8 70 10
100 2 30 7 84 10 120 21 238 29 471 29 830 0 304 -7 590 -19 720 -2 19 -6 76
-10 125 -4 50 -8 106 -10 125 -2 19 -7 67 -11 105 -3 39 -8 81 -9 95 -2 14 -6
54 -10 90 -4 36 -8 72 -10 80 -2 8 -7 42 -10 75 -4 33 -8 67 -10 75 -2 8 -7
38 -10 65 -10 78 -63 386 -91 525 -14 69 -28 136 -30 150 -14 76 -139 568
-179 705 -134 462 -320 966 -521 1410 -76 168 -259 538 -327 660 -24 44 -61
112 -82 150 -21 39 -56 98 -77 133 -21 34 -38 65 -38 67 0 3 -15 29 -34 58
-18 28 -69 108 -111 177 -220 352 -444 667 -719 1010 -96 120 -309 373 -351
416 -11 12 -56 61 -100 110 -147 164 -533 545 -749 739 -270 243 -607 513
-906 724 -63 45 -121 86 -127 91 -62 52 -612 397 -788 495 -239 134 -318 175
-554 291 -216 107 -325 157 -506 234 -55 23 -114 48 -131 56 -223 98 -742 279
-1084 378 -132 38 -500 133 -580 150 -14 3 -113 23 -220 46 -201 41 -400 77
-525 94 -16 3 -46 7 -65 10 -51 8 -256 34 -320 41 -30 3 -73 8 -95 11 -42 6
-54 7 -255 23 -207 17 -268 20 -445 27 -307 12 -773 7 -1055 -11 -124 -8 -246
-17 -260 -20 -8 -1 -57 -6 -108 -9 -51 -4 -100 -9 -110 -10 -9 -2 -48 -7 -87
-11 -38 -4 -77 -8 -85 -10 -20 -3 -95 -14 -145 -20 -269 -33 -696 -113 -995
-186 -69 -17 -132 -32 -140 -34 -44 -10 -370 -101 -470 -131 -223 -70 -295
-92 -315 -100 -14 -5 -17 -4 -10 3 11 12 293 142 470 218 405 173 941 365
1285 460 52 15 106 30 120 35 14 5 36 12 50 14 14 3 86 21 160 41 74 19 144
37 155 39 11 2 40 9 65 16 25 7 56 14 70 17 14 2 63 13 110 23 105 23 273 57
320 65 19 3 46 8 60 10 14 3 36 8 50 10 14 3 41 8 60 11 19 3 46 7 60 10 14 2
45 7 70 10 25 3 63 9 85 14 22 5 72 12 110 15 39 4 73 9 76 11 3 2 32 6 65 9
32 3 70 7 84 10 24 3 72 9 190 20 30 3 75 7 100 10 134 14 178 17 400 30 30 2
156 7 280 10 124 4 226 8 227 9 3 2 215 -2 438 -8z m-1350 -1470 c162 -8 286
-17 450 -32 133 -12 369 -39 425 -49 14 -2 45 -7 70 -10 25 -3 70 -10 100 -15
30 -5 73 -12 95 -15 74 -10 309 -55 450 -86 1361 -296 2601 -862 3725 -1698
75 -56 90 -67 113 -86 7 -5 30 -23 52 -40 22 -16 49 -37 60 -46 339 -280 348
-288 540 -463 134 -123 448 -437 565 -566 52 -57 103 -113 114 -125 60 -66
296 -347 373 -445 169 -215 445 -605 570 -806 83 -133 257 -429 318 -539 120
-220 305 -602 395 -815 45 -107 88 -208 95 -225 65 -150 283 -785 310 -904 2
-9 18 -68 36 -131 17 -63 32 -119 33 -125 2 -5 8 -28 14 -50 6 -22 13 -51 16
-65 3 -14 21 -92 40 -175 19 -82 39 -177 45 -210 22 -112 53 -280 56 -300 1
-11 10 -69 20 -130 25 -164 25 -163 29 -192 2 -16 7 -57 11 -93 4 -36 8 -76
10 -90 9 -60 23 -202 30 -305 4 -44 8 -96 10 -115 25 -212 25 -1147 0 -1360
-2 -19 -7 -73 -10 -120 -3 -47 -8 -101 -10 -120 -4 -36 -16 -159 -20 -195 -2
-26 -17 -135 -20 -156 -2 -9 -6 -40 -10 -70 -3 -30 -8 -65 -10 -79 -3 -14 -7
-38 -9 -55 -5 -28 -22 -132 -33 -200 -2 -16 -18 -97 -35 -180 -16 -82 -32
-161 -34 -175 -6 -27 -73 -307 -99 -410 -71 -283 -221 -745 -336 -1035 -24
-60 -44 -112 -44 -115 -4 -16 -113 -268 -170 -395 -68 -150 -278 -565 -351
-692 -46 -81 -84 -149 -84 -151 0 -1 -16 -28 -35 -58 -19 -30 -35 -56 -35 -58
0 -7 -135 -219 -238 -376 -233 -353 -621 -855 -863 -1115 -20 -22 -72 -78
-115 -125 -199 -215 -590 -590 -793 -760 -29 -25 -59 -50 -65 -55 -16 -14
-179 -148 -191 -157 -5 -4 -26 -20 -45 -36 -128 -105 -469 -351 -685 -493
-136 -91 -484 -301 -595 -361 -36 -19 -83 -45 -105 -58 -60 -34 -435 -222
-550 -275 -126 -59 -447 -195 -556 -236 -387 -145 -681 -240 -1019 -329 -156
-41 -479 -116 -535 -125 -16 -3 -50 -10 -75 -15 -41 -9 -125 -24 -197 -36 -16
-2 -44 -7 -63 -10 -80 -14 -117 -19 -225 -34 -160 -23 -289 -38 -370 -45 -38
-3 -83 -8 -100 -10 -16 -2 -73 -7 -125 -10 -52 -4 -115 -9 -140 -11 -273 -22
-953 -22 -1250 1 -30 2 -89 7 -130 10 -41 3 -100 8 -130 10 -30 3 -73 7 -95
10 -22 3 -62 7 -90 10 -27 3 -66 7 -85 10 -19 2 -55 7 -80 10 -101 12 -405 60
-480 75 -25 5 -58 11 -75 14 -142 22 -591 128 -825 196 -58 17 -114 33 -125
35 -35 8 -376 121 -505 168 -141 50 -488 189 -594 237 -39 17 -84 37 -100 45
-17 7 -80 37 -141 65 -60 29 -129 61 -153 72 -24 11 -42 21 -40 23 2 3 46 -9
98 -25 87 -27 355 -105 397 -115 10 -3 99 -25 198 -50 99 -24 200 -47 225 -51
25 -3 48 -8 51 -10 18 -11 416 -81 589 -104 47 -6 96 -13 110 -15 77 -11 112
-15 175 -21 39 -3 78 -8 88 -10 10 -1 61 -6 115 -9 53 -4 108 -8 122 -10 175
-25 1043 -25 1300 0 25 3 79 7 120 10 72 5 136 11 210 20 19 2 60 7 90 10 30
3 66 8 80 10 14 2 50 7 80 10 30 3 62 8 70 10 8 2 38 7 65 11 69 9 117 16 190
30 11 2 47 9 80 14 229 40 643 138 875 206 134 39 398 124 475 151 235 85 393
147 560 218 72 31 326 146 342 154 10 6 92 47 183 92 91 45 181 91 200 102 19
11 69 38 110 60 41 22 80 43 85 47 6 5 27 17 48 29 85 48 107 61 222 131 108
66 423 276 548 365 63 45 330 247 337 254 3 3 39 33 80 66 82 65 84 67 215
181 342 296 690 646 971 974 332 388 692 890 914 1274 10 17 41 72 70 121 134
230 334 629 440 875 34 80 68 159 75 175 16 36 94 235 125 320 67 183 193 569
216 665 2 8 22 85 45 170 22 85 42 162 44 170 2 8 13 58 25 110 12 52 24 104
25 115 2 11 6 31 9 45 12 51 66 344 71 384 3 22 7 48 10 56 2 8 6 33 9 55 3
22 12 87 20 145 8 58 18 134 21 170 4 36 8 76 10 90 5 34 14 140 20 225 3 39
7 97 10 130 23 278 23 844 0 1185 -14 208 -29 379 -40 450 -2 14 -7 50 -10 80
-3 30 -8 66 -10 80 -2 14 -6 45 -9 70 -3 25 -8 54 -10 65 -2 11 -6 41 -10 66
-4 25 -9 58 -11 72 -16 95 -26 150 -30 174 -3 16 -12 62 -20 103 -8 41 -21
109 -30 150 -9 41 -19 85 -21 97 -2 12 -9 34 -14 48 -5 14 -8 25 -5 25 2 0 -1
15 -6 33 -5 17 -14 50 -19 72 -5 22 -14 58 -20 80 -6 22 -12 47 -14 55 -2 8
-11 42 -20 75 -9 33 -19 69 -21 79 -20 88 -156 502 -232 706 -167 445 -398
936 -626 1330 -27 47 -57 99 -67 115 -62 109 -317 506 -352 550 -5 6 -54 73
-110 150 -55 77 -111 154 -124 170 -14 17 -28 35 -32 40 -35 47 -111 144 -128
165 -12 14 -57 68 -100 120 -93 112 -120 144 -154 179 -14 14 -54 60 -90 101
-70 81 -530 544 -595 599 -22 18 -60 52 -85 75 -25 23 -76 68 -115 101 -38 33
-72 63 -75 66 -5 6 -203 166 -265 214 -21 17 -97 74 -169 127 -72 54 -136 102
-143 107 -53 45 -662 441 -678 441 -3 0 -34 18 -70 40 -36 22 -67 40 -70 40
-2 0 -26 13 -52 28 -214 126 -588 307 -903 438 -85 36 -164 69 -175 74 -11 5
-65 26 -120 45 -55 20 -116 43 -135 50 -251 101 -1000 310 -1285 358 -16 3
-91 17 -165 30 -137 26 -147 28 -280 47 -41 6 -91 13 -110 16 -19 3 -53 7 -75
10 -22 2 -56 6 -75 9 -19 2 -62 7 -95 10 -33 3 -76 8 -95 10 -19 2 -69 7 -110
10 -41 3 -95 8 -120 10 -284 25 -1077 25 -1290 0 -14 -1 -70 -6 -125 -10 -55
-4 -111 -8 -125 -10 -14 -2 -54 -6 -90 -10 -36 -3 -76 -8 -90 -10 -14 -2 -63
-9 -110 -15 -47 -5 -96 -12 -110 -14 -14 -2 -47 -8 -75 -12 -27 -4 -57 -9 -65
-10 -8 -2 -31 -5 -50 -8 -56 -7 -209 -35 -285 -51 -38 -9 -79 -17 -90 -20 -18
-3 -146 -31 -185 -40 -179 -40 -403 -101 -609 -164 -91 -28 -167 -48 -169 -46
-3 2 6 9 19 14 13 5 86 39 162 75 76 36 217 100 315 142 97 41 186 79 197 84
76 33 379 144 540 198 201 68 588 182 668 198 10 2 27 6 37 9 10 3 27 7 37 9
10 2 45 11 78 20 50 13 145 34 230 52 11 2 31 6 45 9 14 3 36 8 50 10 14 3 61
12 105 21 44 8 94 18 110 20 17 3 66 12 110 19 44 8 103 17 130 20 28 4 57 8
65 10 8 2 38 7 65 10 45 5 81 10 155 20 45 6 114 14 185 21 39 3 84 8 100 10
17 2 71 6 120 9 50 4 110 8 135 10 25 2 124 7 220 11 96 3 176 7 177 8 6 4
551 -2 668 -8z m-1435 -1470 c215 -15 294 -22 380 -32 25 -3 65 -8 90 -10 25
-2 59 -6 75 -8 17 -3 50 -7 75 -11 25 -3 56 -8 70 -10 14 -3 45 -7 70 -10 50
-6 76 -10 165 -26 753 -135 1436 -353 2123 -680 81 -38 156 -74 166 -80 10 -6
58 -31 105 -56 200 -106 533 -300 539 -315 2 -4 8 -8 14 -8 9 0 311 -197 348
-227 8 -7 56 -42 105 -77 50 -36 95 -69 100 -73 6 -5 48 -38 95 -73 47 -36 87
-67 90 -70 3 -3 41 -35 85 -70 347 -281 762 -688 1050 -1030 44 -52 82 -97 85
-100 3 -3 46 -57 96 -120 265 -335 496 -677 709 -1050 77 -135 325 -618 325
-633 0 -3 18 -44 40 -91 21 -47 69 -161 105 -253 37 -93 70 -177 75 -188 26
-60 144 -414 194 -585 62 -207 149 -578 185 -785 11 -66 23 -131 26 -145 2
-13 7 -42 10 -65 3 -22 10 -67 15 -100 5 -33 12 -80 15 -105 3 -25 9 -79 14
-120 21 -166 37 -360 48 -575 12 -255 6 -732 -12 -945 -1 -20 -6 -76 -9 -125
-4 -50 -9 -103 -11 -120 -2 -16 -9 -75 -15 -130 -6 -55 -13 -111 -15 -125 -2
-14 -7 -50 -10 -80 -4 -30 -9 -64 -11 -75 -2 -10 -6 -35 -9 -55 -3 -20 -7 -45
-9 -57 -3 -11 -7 -38 -10 -59 -26 -170 -106 -525 -176 -779 -85 -313 -253
-793 -359 -1027 -10 -24 -38 -85 -60 -136 -107 -241 -299 -611 -439 -842 -15
-25 -36 -60 -47 -79 -50 -84 -310 -469 -400 -591 -96 -129 -330 -422 -399
-499 -187 -207 -264 -289 -406 -431 -522 -520 -1055 -929 -1697 -1301 -248
-144 -481 -262 -813 -411 -188 -85 -672 -266 -815 -304 -5 -2 -55 -17 -110
-34 -96 -30 -423 -117 -475 -127 -13 -2 -60 -13 -105 -23 -44 -10 -129 -28
-190 -39 -60 -12 -119 -23 -130 -25 -11 -2 -40 -7 -65 -11 -25 -4 -54 -9 -64
-11 -11 -2 -42 -6 -70 -9 -28 -3 -58 -8 -66 -10 -8 -2 -35 -7 -60 -10 -25 -3
-61 -8 -80 -10 -19 -3 -57 -8 -85 -11 -27 -2 -68 -6 -90 -9 -22 -2 -71 -7
-110 -10 -38 -3 -86 -8 -105 -10 -245 -26 -1038 -26 -1265 0 -16 2 -66 6 -110
10 -44 3 -93 8 -110 11 -30 4 -167 20 -255 30 -25 2 -56 7 -70 10 -13 3 -40 7
-60 10 -19 2 -75 11 -125 20 -49 9 -101 17 -115 19 -14 2 -61 11 -105 20 -44
9 -91 19 -105 21 -14 3 -81 19 -150 35 -69 17 -132 32 -140 34 -228 50 -700
202 -1005 322 -246 97 -752 329 -742 340 2 1 42 -8 88 -22 84 -26 371 -103
412 -111 41 -8 62 -13 172 -38 61 -14 133 -28 160 -32 28 -3 52 -8 55 -9 6 -4
154 -29 225 -39 22 -4 51 -8 65 -11 14 -2 46 -7 73 -10 45 -5 89 -10 167 -20
19 -3 69 -7 110 -10 41 -3 84 -8 95 -10 136 -27 964 -27 1275 0 65 5 175 17
200 20 14 2 50 6 80 10 30 3 71 8 90 11 19 2 49 6 65 9 17 2 48 6 70 10 22 3
54 8 70 11 51 8 150 26 215 39 14 2 40 7 59 10 19 3 37 7 40 9 3 2 22 7 42 10
86 13 401 92 539 133 30 10 60 18 65 19 61 13 513 169 592 205 24 10 47 19 53
19 6 0 18 4 28 10 9 5 87 40 172 76 509 218 1028 518 1500 867 121 90 355 274
391 309 8 7 48 42 89 78 41 36 97 85 125 110 64 57 414 408 480 480 160 176
338 390 461 555 32 44 61 82 64 85 13 12 133 186 221 320 191 290 310 499 475
830 77 157 235 513 250 565 1 6 23 62 47 125 84 218 178 516 236 750 18 69 36
143 42 164 6 22 13 49 15 60 2 12 6 32 9 46 11 50 15 70 19 88 4 16 34 175 41
217 17 93 35 209 40 250 3 28 8 59 10 70 2 11 7 47 10 80 3 33 8 76 10 95 30
244 40 452 40 840 -1 306 -6 463 -20 620 -2 19 -6 64 -9 100 -3 36 -8 81 -10
100 -3 19 -7 55 -10 80 -9 74 -17 143 -21 170 -8 53 -45 276 -50 300 -3 14
-10 52 -16 84 -6 33 -26 127 -45 210 -20 83 -38 162 -41 176 -3 14 -14 56 -25
94 -11 38 -21 77 -23 87 -5 27 -78 266 -115 379 -177 536 -485 1184 -774 1629
-36 56 -66 106 -66 111 0 4 -3 10 -7 12 -5 2 -39 50 -78 107 -102 152 -392
540 -435 581 -3 3 -48 55 -100 115 -142 165 -159 183 -375 400 -385 385 -708
652 -1150 950 -525 353 -1063 625 -1665 842 -69 25 -136 49 -150 53 -82 26
-227 72 -240 75 -8 2 -55 16 -105 30 -89 25 -336 89 -385 99 -14 3 -89 18
-167 35 -78 16 -157 32 -175 35 -18 3 -76 12 -128 20 -123 20 -204 32 -285 41
-27 3 -66 7 -85 10 -19 2 -66 7 -105 11 -38 3 -86 8 -105 10 -260 26 -1033 26
-1265 -1 -16 -2 -61 -6 -100 -10 -38 -3 -83 -8 -100 -10 -16 -2 -55 -7 -85
-10 -30 -3 -64 -7 -75 -9 -19 -3 -76 -12 -155 -22 -19 -3 -71 -11 -115 -19
-44 -8 -96 -17 -115 -20 -19 -3 -98 -19 -175 -35 -77 -17 -151 -33 -165 -36
-70 -14 -384 -98 -453 -121 -43 -14 -80 -23 -82 -21 -6 6 251 132 445 218 387
171 977 373 1300 445 8 2 71 17 140 34 69 16 140 33 158 36 18 3 63 12 100 19
57 13 171 33 287 52 17 3 41 7 55 9 14 2 48 7 75 10 28 3 61 7 75 10 14 2 43
7 65 9 22 3 58 7 80 10 49 6 120 13 205 21 36 3 83 8 105 10 22 2 98 7 170 10
71 4 131 8 132 9 5 5 723 -2 803 -8z m-1680 -1461 c107 -3 206 -8 220 -10 14
-1 65 -6 114 -10 50 -4 98 -8 108 -10 10 -2 51 -7 90 -10 40 -4 75 -8 78 -10
3 -1 34 -6 70 -10 36 -4 74 -9 85 -11 11 -2 31 -6 45 -9 14 -2 43 -7 65 -10
34 -4 351 -68 395 -79 8 -2 44 -12 80 -21 36 -9 73 -19 83 -20 47 -10 261 -73
417 -125 327 -108 602 -223 935 -394 497 -255 944 -558 1379 -936 158 -137
491 -470 601 -601 11 -13 47 -55 79 -94 33 -38 62 -72 65 -75 4 -3 35 -41 69
-85 35 -44 68 -87 75 -95 29 -36 208 -284 224 -311 9 -16 21 -29 25 -29 4 0 8
-4 8 -9 0 -6 33 -61 74 -123 167 -257 368 -631 490 -913 31 -71 61 -138 66
-147 6 -10 10 -23 10 -28 0 -6 10 -32 21 -58 44 -95 196 -538 214 -622 1 -8
10 -40 19 -71 9 -31 19 -67 21 -79 2 -13 9 -37 14 -54 6 -17 12 -42 15 -56 3
-14 16 -77 31 -140 14 -63 27 -124 29 -135 23 -123 48 -271 61 -365 26 -188
31 -235 50 -455 24 -289 19 -814 -10 -1092 -5 -41 -8 -72 -20 -173 -3 -25 -8
-67 -11 -95 -7 -64 -54 -355 -69 -425 -3 -14 -8 -36 -10 -50 -27 -130 -28
-131 -55 -240 -11 -47 -23 -95 -26 -107 -2 -12 -29 -105 -59 -208 -204 -690
-538 -1375 -962 -1970 -119 -167 -257 -345 -353 -455 -12 -14 -40 -47 -63 -74
-148 -175 -470 -496 -648 -647 -29 -24 -57 -49 -63 -54 -38 -36 -242 -197
-356 -282 -312 -231 -605 -411 -965 -593 -137 -69 -275 -137 -305 -149 -192
-82 -262 -110 -403 -162 -234 -88 -638 -207 -857 -254 -43 -9 -339 -65 -365
-69 -16 -2 -61 -9 -100 -15 -111 -17 -237 -33 -275 -36 -19 -1 -66 -5 -105 -9
-321 -31 -738 -36 -1065 -12 -188 14 -234 18 -251 21 -10 2 -49 7 -86 10 -37
4 -77 9 -87 11 -11 2 -54 8 -95 14 -205 28 -554 100 -731 150 -19 5 -84 24
-145 41 -754 211 -1532 601 -2180 1093 -88 67 -172 132 -185 143 -263 221
-330 283 -535 488 -187 189 -249 256 -389 425 -43 52 -88 106 -100 120 -60 71
-268 358 -359 496 -92 141 -207 331 -207 344 0 5 -4 10 -10 10 -5 0 -10 4 -10
9 0 5 -21 46 -47 92 -144 261 -303 609 -416 914 -46 124 -149 440 -162 495 -2
8 -17 67 -34 130 -44 164 -102 441 -126 600 -8 55 -18 116 -20 131 -2 9 -6 40
-10 70 -3 30 -8 65 -10 79 -3 23 -10 92 -20 195 -29 311 -34 838 -10 1085 2
25 7 81 10 125 4 44 8 91 10 105 2 14 7 52 10 85 4 33 8 71 10 85 2 14 7 45
10 70 3 25 10 68 15 95 5 28 12 66 14 85 7 44 23 137 30 170 3 14 13 61 22
105 24 119 98 404 139 535 20 63 38 122 40 130 14 57 157 440 203 540 11 25
34 79 52 120 59 136 235 482 295 580 12 19 24 42 28 50 4 8 13 24 19 35 7 10
50 78 94 150 465 747 1112 1432 1819 1927 77 53 238 162 257 173 10 6 62 38
115 71 54 34 134 82 178 106 44 25 98 56 120 68 53 30 334 170 420 210 296
136 688 278 990 360 103 28 225 59 250 65 11 2 95 19 187 39 91 19 183 37 205
40 21 3 49 8 63 11 52 10 87 15 138 21 29 3 62 7 74 9 11 3 46 7 77 10 31 3
70 8 86 10 17 2 66 7 110 10 44 4 96 8 115 10 19 3 121 7 225 11 105 3 191 7
192 8 2 2 107 -1 323 -9z"/>
<path d="M4379 15468 c0 -24 -1 -1602 -1 -3508 l-1 -3465 579 -2 c318 -1 581
2 584 7 3 4 5 922 5 2039 0 1664 2 2028 13 2014 7 -10 23 -29 35 -43 12 -14
91 -108 175 -210 85 -102 164 -196 176 -210 12 -14 59 -72 106 -130 46 -58 87
-107 90 -110 3 -3 66 -79 140 -170 74 -91 137 -167 140 -170 3 -3 62 -75 130
-160 69 -85 130 -162 137 -170 13 -15 171 -211 245 -305 22 -27 52 -65 67 -84
14 -19 44 -57 67 -85 22 -28 87 -111 144 -185 117 -152 156 -195 220 -237 66
-45 101 -56 184 -59 59 -2 85 2 131 21 67 27 102 58 191 169 36 44 71 87 78
96 7 8 46 58 87 110 40 52 94 119 119 150 54 66 91 112 160 199 28 36 64 81
80 100 16 19 117 145 224 280 108 135 202 252 209 260 7 8 95 119 197 245 101
127 225 280 274 340 49 61 141 175 205 254 l116 145 5 -2050 5 -2049 575 0
c316 0 580 3 585 7 7 4 10 1179 9 3500 -1 1921 -2 3497 -3 3501 -1 9 -265 7
-279 -2 -8 -5 -241 -300 -451 -570 -14 -19 -35 -46 -47 -60 -17 -21 -168 -214
-602 -771 -15 -19 -45 -57 -67 -85 -22 -27 -87 -111 -145 -185 -58 -74 -111
-142 -117 -150 -15 -18 -166 -211 -228 -291 -23 -31 -124 -160 -222 -285 -99
-126 -267 -341 -375 -479 -107 -137 -310 -397 -451 -577 l-255 -328 -64 78
c-36 42 -180 226 -322 407 -141 182 -264 339 -273 349 -9 11 -30 38 -47 60
-17 23 -94 122 -171 220 -77 98 -156 200 -176 225 -92 119 -887 1138 -906
1161 -14 18 -246 316 -320 411 -41 53 -382 491 -479 614 -104 133 -197 251
-200 255 -3 2 -68 6 -145 7 l-139 3 -1 -42z"/>
</g>
</svg>
